<svg version="1.1" xmlns="http://www.w3.org/2000/svg" xmlns:xlink="http://www.w3.org/1999/xlink" width="32.32077" height="61.87294" viewBox="0,0,32.32077,61.87294"><g transform="translate(-223.83962,-149.06353)"><g data-paper-data="{&quot;isPaintingLayer&quot;:true}" fill="#ffae00" fill-rule="nonzero" stroke="#000000" stroke-width="0" stroke-linecap="butt" stroke-linejoin="miter" stroke-miterlimit="10" stroke-dasharray="" stroke-dashoffset="0" style="mix-blend-mode: normal"><path d="M225.52262,149.22957c2.24609,-0.88684 2.09753,0.91196 12.29337,27.37983c5.79659,15.48858 10.38525,28.17936 8.69794,28.70929c-2.46227,0.95048 -6.49677,-11.89124 -12.29336,-27.37983c-8.87747,-25.31253 -11.37406,-27.73985 -8.69794,-28.70929z" data-paper-data="{&quot;index&quot;:null}"/><path d="M235.61882,184.52241c-4.805,0 -8.70021,-3.80897 -8.70021,-8.50759c0,-0.41302 -3.31808,-4.8681 -3.06525,-6.78375c0.2126,-1.45206 5.02129,-0.15782 6.0601,-0.28841c2.55472,-0.52653 2.86646,-1.43543 5.70537,-1.43543c0.82972,0 1.85884,-3.69667 3.19196,-2.88467c2.46567,1.50184 5.50825,8.34252 5.50825,11.39224c0,4.69862 -3.89522,8.50759 -8.70021,8.50759z" data-paper-data="{&quot;index&quot;:null}"/><path d="M247.6193,194.47549c-2.07603,1.44324 -4.27837,2.28054 -6.59878,2.50248c-2.3917,0.22875 -4.44644,0.40003 -6.43466,-1.2547c-3.91717,-3.26014 -4.38471,-10.09604 -1.15186,-12.90236c0.75992,-0.65981 1.71758,-1.28956 2.38114,-1.61668c0.92864,-0.45778 1.00899,-0.52584 3.00408,-1.0248c3.17638,-0.49312 5.21829,-0.47723 7.64821,1.54512c3.91717,3.26014 4.43286,8.8853 1.15186,12.75095z" data-paper-data="{&quot;index&quot;:null}"/><path d="M235.96755,207.80469c-1.34601,-2.98737 -0.88761,-4.28189 -0.45411,-6.65547c0.70783,-3.29499 2.05627,-4.57778 5.1747,-5.71046c1.16957,-0.42481 4.06911,-1.25212 5.70281,-1.43625c1.90462,-0.18552 3.56487,0.30536 4.94022,1.28987c1.2346,0.88375 1.59677,1.14678 3.32779,3.63059c1.37816,2.35389 2.35962,6.01014 0.39374,8.88473c-1.89256,2.76738 -5.79356,3.12877 -9.76658,3.12877c-4.37814,0 -7.90632,-0.33059 -9.31858,-3.13179z" data-paper-data="{&quot;index&quot;:null}"/><path d="M242.01486,171.6074z" data-paper-data="{&quot;index&quot;:null}"/></g></g></svg>