<svg version="1.1" xmlns="http://www.w3.org/2000/svg" xmlns:xlink="http://www.w3.org/1999/xlink" width="115.31366" height="191.18113" viewBox="0,0,115.31366,191.18113"><g transform="translate(-262.53744,-83.95201)"><g stroke-miterlimit="10"><text transform="translate(262.72988,164.51864) scale(0.38488,0.38488)" font-size="40" xml:space="preserve" fill="#000000" stroke="none" stroke-width="1" font-family="&quot;0xProtoNerdFontPropo-Bold&quot;, Serif" font-weight="400" text-anchor="start"><tspan x="0" dy="0">Unlocked by </tspan><tspan x="0" dy="46.150000000000006px">clicking a</tspan><tspan x="0" dy="46.150000000000006px">golden dango</tspan><tspan x="0" dy="46.150000000000006px">and clicking</tspan><tspan x="0" dy="46.150000000000006px">another one</tspan><tspan x="0" dy="46.150000000000006px">while its</tspan><tspan x="0" dy="46.150000000000006px">active</tspan></text><path d="M276.46794,87.31512c2.24609,-0.88684 2.09753,0.91196 12.29337,27.37983c5.79659,15.48858 10.38525,28.17936 8.69794,28.70929c-2.46227,0.95048 -6.49677,-11.89124 -12.29336,-27.37983c-8.87747,-25.31253 -11.37406,-27.73985 -8.69794,-28.70929z" fill="#ffae00" stroke="#000000" stroke-width="1.5"/><path d="M286.56414,122.60796c-4.805,0 -8.70021,-3.80897 -8.70021,-8.50759c0,-0.41302 -3.31808,-4.8681 -3.06525,-6.78375c0.2126,-1.45206 5.02129,-0.15782 6.0601,-0.28841c2.55472,-0.52653 2.86646,-1.43543 5.70537,-1.43543c0.82972,0 1.85884,-3.69667 3.19196,-2.88467c2.46567,1.50184 5.50825,8.34252 5.50825,11.39224c0,4.69862 -3.89522,8.50759 -8.70021,8.50759z" fill="#ffae00" stroke="#000000" stroke-width="1.5"/><path d="M298.56462,132.56104c-2.07603,1.44324 -4.27837,2.28054 -6.59878,2.50248c-2.3917,0.22875 -4.44644,0.40003 -6.43466,-1.2547c-3.91717,-3.26014 -4.38471,-10.09604 -1.15186,-12.90236c0.75992,-0.65981 1.71758,-1.28956 2.38114,-1.61668c0.92864,-0.45778 1.00899,-0.52584 3.00408,-1.0248c3.17638,-0.49312 5.21829,-0.47723 7.64821,1.54512c3.91717,3.26014 4.43286,8.8853 1.15186,12.75095z" fill="#ffae00" stroke="#000000" stroke-width="1.5"/><path d="M286.91287,145.89024c-1.34601,-2.98737 -0.88761,-4.28189 -0.45411,-6.65547c0.70783,-3.29499 2.05627,-4.57778 5.1747,-5.71046c1.16957,-0.42481 4.06911,-1.25212 5.70281,-1.43625c1.90462,-0.18552 3.56487,0.30536 4.94022,1.28987c1.2346,0.88375 1.59677,1.14678 3.32779,3.63059c1.37816,2.35389 2.35962,6.01014 0.39374,8.88473c-1.89256,2.76738 -5.79356,3.12877 -9.76658,3.12877c-4.37814,0 -7.90632,-0.33059 -9.31858,-3.13179z" fill="#ffae00" stroke="#000000" stroke-width="1.5"/><path d="M292.96018,109.69295z" fill="#ffae00" stroke="#000000" stroke-width="0"/><path d="M326.92074,84.86805c2.24609,-0.88684 2.09753,0.91196 12.29337,27.37983c5.79659,15.48858 10.38525,28.17936 8.69794,28.70929c-2.46227,0.95048 -6.49677,-11.89124 -12.29336,-27.37983c-8.87747,-25.31253 -11.37406,-27.73985 -8.69794,-28.70929z" fill="#ffae00" stroke="#000000" stroke-width="1.5"/><path d="M337.01694,120.16089c-4.805,0 -8.70021,-3.80897 -8.70021,-8.50759c0,-0.41302 -3.31808,-4.8681 -3.06525,-6.78375c0.2126,-1.45206 5.02129,-0.15782 6.0601,-0.28841c2.55472,-0.52653 2.86646,-1.43543 5.70537,-1.43543c0.82972,0 1.85884,-3.69667 3.19196,-2.88467c2.46567,1.50184 5.50825,8.34252 5.50825,11.39224c0,4.69862 -3.89522,8.50759 -8.70021,8.50759z" fill="#ffae00" stroke="#000000" stroke-width="1.5"/><path d="M349.01742,130.11397c-2.07603,1.44324 -4.27837,2.28054 -6.59878,2.50248c-2.3917,0.22875 -4.44644,0.40003 -6.43466,-1.2547c-3.91717,-3.26014 -4.38471,-10.09604 -1.15186,-12.90236c0.75992,-0.65981 1.71758,-1.28956 2.38114,-1.61668c0.92864,-0.45778 1.00899,-0.52584 3.00408,-1.0248c3.17638,-0.49312 5.21829,-0.47723 7.64821,1.54512c3.91717,3.26014 4.43286,8.8853 1.15186,12.75095z" fill="#ffae00" stroke="#000000" stroke-width="1.5"/><path d="M337.36567,143.44317c-1.34601,-2.98737 -0.88761,-4.28189 -0.45411,-6.65547c0.70783,-3.29499 2.05627,-4.57778 5.1747,-5.71046c1.16957,-0.42481 4.06911,-1.25212 5.70281,-1.43625c1.90462,-0.18552 3.56487,0.30536 4.94022,1.28987c1.2346,0.88375 1.59677,1.14678 3.32779,3.63059c1.37816,2.35389 2.35962,6.01014 0.39374,8.88473c-1.89256,2.76738 -5.79356,3.12877 -9.76658,3.12877c-4.37814,0 -7.90632,-0.33059 -9.31858,-3.13179z" fill="#ffae00" stroke="#000000" stroke-width="1.5"/><path d="M343.41298,107.24588z" fill="#ffae00" stroke="#000000" stroke-width="0"/><path d="M282.84042,113.27566c-0.7452,0 -1.34931,-0.6041 -1.34931,-1.34931c0,-0.7452 0.6041,-1.34931 1.34931,-1.34931c0.74521,0 1.34931,0.6041 1.34931,1.34931c0,0.74521 -0.6041,1.34931 -1.34931,1.34931z" fill="#000000" stroke="#000000" stroke-width="1.5"/><path d="M289.61456,110.65188c0,0.7236 -0.11726,0.91909 -0.84087,0.91909c-0.3618,0 -0.4938,-0.18577 -0.7309,-0.42286c-0.23709,-0.23709 -0.42286,-0.52554 -0.42286,-0.88734c0,-0.7236 -0.03918,-0.91909 0.68443,-0.91909c0.7236,0 1.31019,0.58659 1.31019,1.3102z" fill="#000000" stroke="#000000" stroke-width="1.5"/><path d="M333.50252,110.12172c-0.7452,0 -1.34931,-0.6041 -1.34931,-1.34931c0,-0.7452 0.6041,-1.34931 1.34931,-1.34931c0.74521,0 1.34931,0.6041 1.34931,1.34931c0,0.74521 -0.6041,1.34931 -1.34931,1.34931z" fill="#000000" stroke="#000000" stroke-width="1.5"/><path d="M340.27666,107.49793c0,0.7236 -0.11726,0.91909 -0.84087,0.91909c-0.3618,0 -0.4938,-0.18577 -0.7309,-0.42286c-0.23709,-0.23709 -0.42286,-0.52554 -0.42286,-0.88734c0,-0.7236 -0.03918,-0.91909 0.68443,-0.91909c0.7236,0 1.31019,0.58659 1.31019,1.3102z" fill="#000000" stroke="#000000" stroke-width="1.5"/></g></g></svg>